<svg xmlns="http://www.w3.org/2000/svg" width="34" height="42" viewBox="0 0 34 42" fill="none">
  <path d="M17 1.5C8.72 1.5 2 8.18 2 16.42c0 10.6 12.47 21.8 14.18 23.28a1.28 1.28 0 0 0 1.64 0C19.53 38.22 32 27.02 32 16.42 32 8.18 25.28 1.5 17 1.5Z" fill="#4D4E03"/>
  <circle cx="17" cy="16.5" r="8.5" fill="#FAFAF0"/>
  <path d="M12 22c3-1 5-4 4-7-3 1-5 4-4 7Z" fill="#4D4E03"/>
  <path d="M14 20c2-.7 4-3 3-5.5" stroke="#2D2D02" stroke-width="1.2" stroke-linecap="round"/>
  <path d="M17 22v-7M21 14h-8" stroke="#4D4E03" stroke-width="1.2" stroke-linecap="round"/>
</svg>
