<svg xmlns="http://www.w3.org/2000/svg" width="34" height="42" viewBox="0 0 34 42" fill="none">
  <path d="M17 1.5C8.72 1.5 2 8.18 2 16.42c0 10.6 12.47 21.8 14.18 23.28a1.28 1.28 0 0 0 1.64 0C19.53 38.22 32 27.02 32 16.42 32 8.18 25.28 1.5 17 1.5Z" fill="#15803D"/>
  <circle cx="17" cy="16.5" r="8.5" fill="#F0FDF4"/>
  <path d="M12.4 18.4c2.8-5.2 8.2-6.5 10.4-6.7-.4 5.1-3.3 8.8-8.4 9.9" fill="#4ADE80"/>
  <path d="M15.1 22.1c.2-2.8 1.2-5.4 3-7.7" stroke="#166534" stroke-width="1.4" stroke-linecap="round"/>
</svg>
