<svg xmlns="http://www.w3.org/2000/svg" width="34" height="42" viewBox="0 0 34 42" fill="none">
  <path d="M17 1.5C8.72 1.5 2 8.18 2 16.42c0 10.6 12.47 21.8 14.18 23.28a1.28 1.28 0 0 0 1.64 0C19.53 38.22 32 27.02 32 16.42 32 8.18 25.28 1.5 17 1.5Z" fill="#65A30D"/>
  <circle cx="17" cy="16.5" r="8.5" fill="#F7FEE7"/>
  <path d="M12.2 13.2h9.6v8.4a1.7 1.7 0 0 1-1.7 1.7h-6.2a1.7 1.7 0 0 1-1.7-1.7v-8.4Z" fill="#A3E635"/>
  <path d="M17 12.1c.8 0 1.7-1.3 1.7-2.4-1.4.1-2.7 1.2-3.1 2.4" stroke="#3F6212" stroke-width="1.2" stroke-linecap="round"/>
</svg>
