<svg xmlns="http://www.w3.org/2000/svg" width="34" height="42" viewBox="0 0 34 42" fill="none">
  <path d="M17 1.5C8.72 1.5 2 8.18 2 16.42c0 10.6 12.47 21.8 14.18 23.28a1.28 1.28 0 0 0 1.64 0C19.53 38.22 32 27.02 32 16.42 32 8.18 25.28 1.5 17 1.5Z" fill="#1D4ED8"/>
  <circle cx="17" cy="16.5" r="8.5" fill="#EFF6FF"/>
  <path d="M17 10.7v8.2m0 0-3.3-2m3.3 2 3.3-2m-6.7 0c.2 2 1.7 3.5 3.7 3.5 2 0 3.5-1.5 3.7-3.5m-8.7 5.1h10.1" stroke="#1D4ED8" stroke-width="1.4" stroke-linecap="round" stroke-linejoin="round"/>
</svg>
