<svg xmlns="http://www.w3.org/2000/svg" width="34" height="42" viewBox="0 0 34 42" fill="none">
  <path d="M17 1.5C8.72 1.5 2 8.18 2 16.42c0 10.6 12.47 21.8 14.18 23.28a1.28 1.28 0 0 0 1.64 0C19.53 38.22 32 27.02 32 16.42 32 8.18 25.28 1.5 17 1.5Z" fill="#0EA5E9"/>
  <circle cx="17" cy="16.5" r="8.5" fill="#F0F9FF"/>
  <path d="M14.8 10.8h4.4M16 10.8v4.5l-3.4 5a1.8 1.8 0 0 0 1.5 2.8h5.8a1.8 1.8 0 0 0 1.5-2.8l-3.4-5v-4.5" stroke="#0369A1" stroke-width="1.4" stroke-linecap="round" stroke-linejoin="round"/>
</svg>
