<svg xmlns="http://www.w3.org/2000/svg" width="34" height="42" viewBox="0 0 34 42" fill="none">
  <path d="M17 1.5C8.72 1.5 2 8.18 2 16.42c0 10.6 12.47 21.8 14.18 23.28a1.28 1.28 0 0 0 1.64 0C19.53 38.22 32 27.02 32 16.42 32 8.18 25.28 1.5 17 1.5Z" fill="#03254D"/>
  <circle cx="17" cy="16.5" r="8.5" fill="#FDFDF0"/>
  <circle cx="17" cy="16.5" r="3.2" fill="#F5F749"/>
  <path d="M17 8.5v2.4M17 22.1v2.4M9 16.5h2.4M22.6 16.5H25M11.2 10.7l1.7 1.7M21.1 20.6l1.7 1.7M22.8 10.7l-1.7 1.7M12.9 20.6l-1.7 1.7" stroke="#03254D" stroke-width="1.4" stroke-linecap="round"/>
</svg>
